<svg height="512pt" viewBox="0 0 512.00719 512" width="512pt" xmlns="http://www.w3.org/2000/svg"><path d="m431.5 97.105469h1.058594v-54.90625c0-8.675781-7.035156-15.710938-15.710938-15.710938h-3.886718c-4.167969 0-8.164063 1.652344-11.109376 4.601563-2.949218 2.945312-4.601562 6.941406-4.601562 11.109375v14.035156zm0 0" fill="#a5a5a4"/><path d="m353.109375 24.542969c0-8.675781 7.035156-15.710938 15.714844-15.710938h12.710937c8.679688 0 15.714844 7.035157 15.714844 15.710938v54.910156zm0 0" fill="#5e5f62"/><path d="m114.765625 56.234375v-14.035156c0-8.675781-7.035156-15.710938-15.714844-15.710938h-3.882812c-4.167969 0-8.164063 1.652344-11.109375 4.601563-2.949219 2.945312-4.601563 6.941406-4.601563 11.109375v54.90625h1.058594zm0 0" fill="#a5a5a4"/><path d="m114.765625 88.28125v-63.738281c0-8.675781 7.035156-15.710938 15.714844-15.710938h12.710937c8.675782 0 15.710938 7.035157 15.710938 15.710938zm0 0" fill="#5e5f62"/><path d="m238.351562 440.589844v53.757812c-.027343 9.738282-7.917968 17.628906-17.65625 17.65625h-35.308593c-9.738281-.027344-17.625-7.917968-17.65625-17.65625v-73.003906zm0 0" fill="#5e5f62"/><path d="m344.28125 421.257812v73.089844c-.027344 9.738282-7.914062 17.628906-17.652344 17.65625h-35.3125c-9.738281-.027344-17.625-7.917968-17.652344-17.65625v-53.757812zm0 0" fill="#5e5f62"/><path d="m467.871094 220.695312c.5 73.183594-34.972656 141.949219-94.898438 183.964844-4.949218 3.476563-10.074218 6.6875-15.359375 9.621094-57.585937 33.082031-127.675781 36.046875-187.851562 7.945312-6.269531-2.855468-12.371094-6.066406-18.273438-9.621093-67.15625-40.527344-107.960937-113.476563-107.34375-191.910157 0-121.910156 94.898438-220.69140575 211.863281-220.69140575 24.582032-.03906245 48.964844 4.41796875 71.945313 13.15234375 5.445313 1.972656 10.78125 4.242188 15.976563 6.796875 76.539062 37.445313 124.753906 115.535156 123.941406 200.742187zm0 0" fill="#af8066"/><path d="m414.902344 238.347656c-.003906 10.367188 3.652344 20.40625 10.328125 28.335938 5.210937-1.234375 20.894531 13.597656 26.484375 13.597656 14.566406 0 17.769531-11.035156 28.980468-3.445312 14.542969-8.183594 23.230469-23.859376 22.46875-40.527344-.765624-16.667969-10.859374-31.484375-26.085937-38.300782 13.679687-8.113281 20.25-24.371093 16.042969-39.710937-4.203125-15.339844-18.148438-25.972656-34.054688-25.972656-15.902344 0-29.847656 10.632812-34.050781 25.972656-4.207031 15.339844 2.363281 31.597656 16.042969 39.710937-15.890625 7.132813-26.128906 22.921876-26.15625 40.339844zm0 0" fill="#7f5b53"/><path d="m97.109375 238.347656c.007813 10.367188-3.648437 20.40625-10.328125 28.335938-5.207031-1.234375-13.53125 17.277344-19.09375 17.277344-14.566406 0-25.132812-14.714844-36.34375-7.125-14.539062-8.183594-23.230469-23.859376-22.464844-40.527344.765625-16.667969 10.855469-31.484375 26.085938-38.300782-14.707032-8.71875-21.054688-26.722656-15.066406-42.738281 5.984374-16.011719 22.582031-25.4375 39.402343-22.375 16.820313 3.0625 29.027344 17.738281 28.980469 34.832031.039062 12.457032-6.550781 23.988282-17.300781 30.28125 15.882812 7.140626 26.105469 22.925782 26.128906 40.339844zm0 0" fill="#7f5b53"/><path d="m238.351562 61.796875h35.3125c24.375 0 44.136719 19.761719 44.136719 44.136719v70.621094h-123.585937v-70.621094c0-24.375 19.761718-44.136719 44.136718-44.136719zm0 0" fill="#a5a5a4"/><path d="m247.179688 194.210938-26.484376 8.828124v17.65625h-17.652343c-14.628907 0-26.484375-11.859374-26.484375-26.484374v-8.828126c0-14.625 11.855468-26.484374 26.484375-26.484374h32.394531zm0 0" fill="#95a5a5"/><path d="m335.457031 185.382812v8.828126c0 14.625-11.859375 26.484374-26.484375 26.484374h-88.277344v-17.65625l26.484376-8.828124-11.742188-35.3125h73.535156c14.625 0 26.484375 11.859374 26.484375 26.484374zm0 0" fill="#bdc3c7"/><path d="m141.25 335.453125c.03125 33.691406-23.738281 62.714844-56.777344 69.320313-33.039062 6.605468-66.144531-11.050782-79.066406-42.167969-12.921875-31.117188-2.0625-67.027344 25.9375-85.769531 16.269531-10.9375 36.351562-14.613282 55.4375-10.152344 3.984375.933594 7.882812 2.203125 11.652344 3.796875-6.179688 4.855469-1.324219 12.359375-1.324219 20.832031 0 14.65625-2.886719 11.769531 11.769531 11.769531 8.472656 0 21.863282 10.832031 26.632813 4.652344 3.808593 8.742187 5.761719 18.179687 5.738281 27.71875zm0 0" fill="#a5a5a4"/><path d="m88.28125 353.105469c0 9.753906-7.902344 17.65625-17.652344 17.65625s-17.65625-7.902344-17.65625-17.65625c0-9.75 7.90625-17.652344 17.65625-17.652344s17.652344 7.902344 17.652344 17.652344zm0 0" fill="#e6e7e8"/><path d="m135.511719 307.734375c-4.972657 6.402344-12.640625 10.121094-20.746094 10.0625-11.289063-.007813-21.332031-7.171875-25.015625-17.84375-3.683594-10.667969-.195312-22.503906 8.683594-29.472656 16.679687 7.203125 29.953125 20.539062 37.078125 37.253906zm0 0" fill="#bdc3c7"/><path d="m512.007812 335.453125c0 39-31.617187 70.621094-70.621093 70.621094-39.003907 0-70.621094-31.621094-70.621094-70.621094-.027344-9.539063 1.925781-18.976563 5.738281-27.71875 4.765625 6.179687 12.269532 1.96875 20.746094 1.96875 14.652344 0 17.652344-3.734375 17.652344-18.390625 0-8.472656 4.855468-15.976562-1.324219-20.832031 3.769531-1.59375 7.667969-2.863281 11.652344-3.796875 20.996093-4.882813 43.074219.070312 59.972656 13.460937 16.894531 13.386719 26.761719 33.75 26.804687 55.308594zm0 0" fill="#a5a5a4"/><path d="m459.042969 353.105469c0 9.753906-7.90625 17.65625-17.65625 17.65625s-17.65625-7.902344-17.65625-17.65625c0-9.75 7.90625-17.652344 17.65625-17.652344s17.65625 7.902344 17.65625 17.652344zm0 0" fill="#e6e7e8"/><path d="m423.730469 291.3125c0 14.628906-11.855469 26.484375-26.480469 26.484375-8.105469.058594-15.777344-3.660156-20.746094-10.0625 7.121094-16.714844 20.398438-30.050781 37.074219-37.253906 6.414063 5.007812 10.160156 12.695312 10.152344 20.832031zm0 0" fill="#bdc3c7"/><path d="m238.351562 114.761719h-8.828124c-4.875 0-8.828126-3.953125-8.828126-8.828125s3.953126-8.828125 8.828126-8.828125h8.828124c4.875 0 8.828126 3.953125 8.828126 8.828125s-3.953126 8.828125-8.828126 8.828125zm0 0" fill="#fff"/><path d="m282.488281 114.761719h-8.824219c-4.878906 0-8.828124-3.953125-8.828124-8.828125s3.949218-8.828125 8.828124-8.828125h8.824219c4.878907 0 8.828125 3.953125 8.828125 8.828125s-3.949218 8.828125-8.828125 8.828125zm0 0" fill="#fff"/><g fill="#2c2f38"><path d="m229.523438 167.726562c-4.875 0-8.828126-3.949218-8.828126-8.828124v-17.652344c0-4.875 3.953126-8.828125 8.828126-8.828125s8.828124 3.953125 8.828124 8.828125v17.652344c0 4.878906-3.953124 8.828124-8.828124 8.828124zm0 0"/><path d="m282.488281 167.726562c-4.875 0-8.824219-3.949218-8.824219-8.828124v-17.652344c0-4.875 3.949219-8.828125 8.824219-8.828125 4.878907 0 8.828125 3.953125 8.828125 8.828125v17.652344c0 4.878906-3.949218 8.828124-8.828125 8.828124zm0 0"/><path d="m241.175781 308.527344-18.714843 6.269531 5.386718 21.625c1.742188 6.90625-.832031 14.179687-6.53125 18.449219l-25.511718 19.15625 4.5 13.683594c2.691406 7.839843-.472657 16.496093-7.589844 20.746093l-22.953125 13.769531c-6.269531-2.855468-12.371094-6.066406-18.273438-9.621093l32.132813-19.246094-4.589844-13.769531c-2.386719-7.207032.101562-15.136719 6.179688-19.683594l25.511718-19.15625-5.386718-21.71875c-2.230469-8.921875 2.761718-18.0625 11.476562-21.007812l18.714844-6.269532c4.632812-1.558594 9.652344.929688 11.210937 5.5625 1.558594 4.632813-.929687 9.652344-5.5625 11.210938zm0 0"/><path d="m357.523438 63.914062-5.382813 10.683594c-1.464844 2.996094-4.523437 4.882813-7.859375 4.855469-1.382812.015625-2.75-.320313-3.96875-.972656-2.09375-1.046875-3.679688-2.882813-4.410156-5.105469-.726563-2.21875-.539063-4.640625.523437-6.722656l5.296875-10.679688-13.503906-9.007812c-7.417969-4.9375-9.992188-14.628906-6.003906-22.597656l5.382812-10.679688c.085938-.195312.207032-.375.355469-.53125 5.445313 1.972656 10.78125 4.242188 15.976563 6.796875-.152344.578125-.359376 1.140625-.617188 1.679687l-5.296875 10.679688 13.507813 9.003906c7.414062 4.9375 9.988281 14.628906 6 22.597656zm0 0"/><path d="m372.972656 404.660156c-4.949218 3.476563-10.074218 6.6875-15.359375 9.621094l-15.714843-15.800781-9.710938 3.265625c-5.382812 1.816406-11.316406.921875-15.925781-2.40625-4.605469-3.332032-7.320313-8.679688-7.289063-14.363282v-23.042968c0-4.875 3.953125-8.828125 8.828125-8.828125s8.828125 3.953125 8.828125 8.828125v23.042968l9.710938-3.179687c6.316406-2.144531 13.304687-.5 18.007812 4.238281zm0 0"/><path d="m211.871094 485.519531v26.484375h-17.65625v-26.484375c0-4.875 3.953125-8.824219 8.828125-8.824219s8.828125 3.949219 8.828125 8.824219zm0 0"/><path d="m317.800781 485.519531v26.484375h-17.65625v-26.484375c0-4.875 3.953125-8.824219 8.828125-8.824219s8.828125 3.949219 8.828125 8.824219zm0 0"/></g></svg>